<?xml version="1.0" encoding="UTF-8"?>
<svg xmlns="http://www.w3.org/2000/svg" version="1.1" viewBox="0 0 160.6 154">
  <defs>
    <style>
      .cls-1 {
        fill: #1d1d1b;
      }

      .cls-2 {
        fill: none;
        stroke: #1d1d1b;
        stroke-linecap: round;
        stroke-miterlimit: 10;
        stroke-width: 9px;
      }
    </style>
  </defs>
  <!-- Generator: Adobe Illustrator 28.6.0, SVG Export Plug-In . SVG Version: 1.2.0 Build 709)  -->
  <g>
    <g id="Ebene_1">
      <path class="cls-2" d="M4.5,111.1c18.9,21.3,38.9,29.3,49,32.5,20.4,6.4,61.5,12.3,76.7-9.2,7.5-10.6,5.7-23.6,4.9-29.4-5.3-39.2-49.9-61.8-80.9-67-8.5-1.4-22.4-3.7-26.7,2.7-6,9.1,9.3,32.6,27.1,46.2,30.6,23.2,81.3,27,96.6,5.3,4.4-6.3,4.8-13.1,4.9-16.1.8-22.4-18.3-42-36.9-55.6"/>
      <polygon class="cls-1" points="133.4 14.1 84.9 0 119.8 36.5 133.4 14.1"/>
    </g>
  </g>
</svg>